<?xml version="1.0" encoding="UTF-8" standalone="no"?>
<!-- Created with Inkscape (http://www.inkscape.org/) -->

<svg
   xmlns:dc="http://purl.org/dc/elements/1.1/"
   xmlns:cc="http://creativecommons.org/ns#"
   xmlns:rdf="http://www.w3.org/1999/02/22-rdf-syntax-ns#"
   xmlns:svg="http://www.w3.org/2000/svg"
   xmlns="http://www.w3.org/2000/svg"
   xmlns:xlink="http://www.w3.org/1999/xlink"
   xmlns:sodipodi="http://sodipodi.sourceforge.net/DTD/sodipodi-0.dtd"
   xmlns:inkscape="http://www.inkscape.org/namespaces/inkscape"
   id="svg2"
   version="1.1"
   inkscape:version="0.91 r"
   width="60"
   height="90"
   viewBox="0 0 60 90"
   sodipodi:docname="mandle.svg">
  <metadata
     id="metadata8">
    <rdf:RDF>
      <cc:Work
         rdf:about="">
        <dc:format>image/svg+xml</dc:format>
        <dc:type
           rdf:resource="http://purl.org/dc/dcmitype/StillImage" />
        <dc:title></dc:title>
      </cc:Work>
    </rdf:RDF>
  </metadata>
  <defs
     id="defs6">
    <linearGradient
       id="linearGradient4184"
       inkscape:collect="always">
      <stop
         id="stop4188"
         offset="0"
         style="stop-color:#dc2430;stop-opacity:1" />
      <stop
         id="stop4190"
         offset="1"
         style="stop-color:#7b4397;stop-opacity:1" />
    </linearGradient>
    <linearGradient
       inkscape:collect="always"
       xlink:href="#linearGradient4184"
       id="linearGradient4160"
       x1="168.1088"
       y1="60.336224"
       x2="219.07442"
       y2="60.336224"
       gradientUnits="userSpaceOnUse"
       gradientTransform="matrix(1.1772639,0,0,1.0444758,-197.90839,-18.019722)" />
  </defs>
  <sodipodi:namedview
     pagecolor="#ffffff"
     bordercolor="#666666"
     borderopacity="1"
     objecttolerance="10"
     gridtolerance="10"
     guidetolerance="10"
     inkscape:pageopacity="0"
     inkscape:pageshadow="2"
     inkscape:window-width="1920"
     inkscape:window-height="1025"
     id="namedview4"
     showgrid="true"
     inkscape:zoom="2.7175931"
     inkscape:cx="30.094"
     inkscape:cy="64.145442"
     inkscape:window-x="0"
     inkscape:window-y="28"
     inkscape:window-maximized="1"
     inkscape:current-layer="svg2" />
  <path
     style="fill:url(#linearGradient4160);fill-opacity:1"
     d="M 19.191474,87.71724 C 4.4010831,81.60657 -2.674838,65.223156 0.92518789,45.423928 3.5882648,30.777599 9.5905801,18.679445 19.946311,7.085241 c 8.427985,-9.435903 12.166987,-9.443661 20.757718,-0.04307 6.742354,7.377967 14.568652,21.238341 17.272992,30.590467 1.326447,4.587129 1.994756,10.579132 2.020443,18.115127 0.0345,10.123881 -0.251451,11.808985 -2.832426,16.691005 -7.990926,15.11518 -23.38112,21.30735 -37.973564,15.27846 z M 40.763292,84.38808 C 55.500776,77.55753 60.814757,59.6833 54.517737,38.123325 51.064669,26.300553 42.284023,12.152981 34.174993,5.346644 29.962508,1.810878 29.097854,2.151814 21.60557,10.30286 7.5537604,25.590175 -0.24609551,51.595886 4.6964586,66.679975 8.5796989,78.53115 19.283947,87.08204 30.236352,87.08204 c 2.999349,0 6.829107,-0.98006 10.52694,-2.69396 z M 30.345848,79.08612 C 26.754323,49.042332 25.038837,11.553439 27.201224,10.365628 c 0.455271,-0.250084 0.657196,5.366448 0.448726,12.48118 -0.233982,7.985592 0.524517,22.047292 1.982076,36.745446 1.298617,13.095266 2.130966,24.013756 1.84967,24.263326 -0.281295,0.24955 -0.792428,-1.89669 -1.135848,-4.76946 z M 26.0933,78.48781 C 25.693701,75.64594 23.513162,69.69731 21.24767,65.268662 16.409822,55.81153 15.946805,51.963668 17.391919,33.226256 L 18.411442,20.007109 18.262672,38.611835 18.1139,57.21656 22.198676,64.449606 C 26.192285,71.5212 28.12481,78.16339 27.254377,81.82629 27.01538,82.83201 26.492899,81.32969 26.0933,78.48781 Z m 13.156477,2.06625 C 38.845093,80.19503 38.511739,77.22072 38.508996,73.94449 38.506596,70.66827 37.520918,58.513994 36.31938,46.935002 35.11784,35.356007 34.218647,22.577498 34.321175,18.538315 c 0.154704,-6.095342 0.245458,-6.42831 0.53377,-1.958391 0.191058,2.962066 1.337326,15.960896 2.54727,28.886283 3.619721,38.668013 3.508811,36.561743 1.847562,35.087853 z M 18.245047,75.82129 C 17.256216,70.45787 10.436962,44.686588 9.1764775,41.549423 8.6414817,40.217881 8.7522975,39.904456 9.5227107,40.570227 11.189634,42.010764 19.962758,74.86478 19.52325,78.02072 c -0.285145,2.04745 -0.592823,1.51802 -1.278203,-2.19943 z m 25.390769,0.28363 C 43.263494,74.87181 42.947741,71.21907 42.934131,67.98772 42.920591,64.756371 41.920436,54.22143 40.711693,44.576738 39.502961,34.932047 38.603507,24.577049 38.712923,21.565631 l 0.198945,-5.475306 0.363987,4.895979 c 0.200181,2.69279 1.099528,10.624278 1.998535,17.625531 2.066369,16.092477 4.08155,38.809595 3.489327,39.335025 -0.248026,0.22005 -0.75558,-0.60882 -1.127901,-1.84194 z M 12.108124,70.67298 C 10.895671,65.69182 10.3356,64.752411 9.1144004,65.651601 7.8788737,66.561344 7.7381671,66.171531 8.3218663,63.455935 8.7121999,61.639952 9.1783022,59.997387 9.3576466,59.805789 10.037528,59.079484 14.396466,73.36003 14.007498,75.03939 13.783158,76.00799 12.928441,74.0431 12.108124,70.67298 Z M 48.102037,54.523771 c 0.356629,-10.367238 0.828511,-19.033124 1.048613,-19.257523 0.220101,-0.224398 0.400187,8.257886 0.400187,18.849524 0,11.511304 -0.42179,19.257528 -1.048612,19.257528 -0.648497,0 -0.801199,-7.192274 -0.400188,-18.849529 z m 3.388684,2.44799 c 0.551889,-13.637102 1.094278,-14.277934 1.243143,-1.468794 0.0704,6.058775 -0.267415,11.015964 -0.750741,11.015964 -0.483326,0 -0.70491,-4.29623 -0.492402,-9.54717 z M 43.673959,32.830685 c -0.366094,-0.846434 -0.923705,-3.857687 -1.23914,-6.691675 l -0.573494,-5.152706 1.433379,4.406384 c 0.908564,2.793051 1.678225,3.868605 2.102099,2.937587 0.429382,-0.943109 0.693855,-0.592653 0.738944,0.979196 0.09512,3.314314 -1.539826,5.652809 -2.461788,3.521214 z"
     id="path4138"
     inkscape:connector-curvature="0" />
</svg>
